
<svg viewBox="0 0 220 170" version="1.1" xmlns="http://www.w3.org/2000/svg" xmlns:xlink="http://www.w3.org/1999/xlink">
    <defs></defs>
    <path d="M219.176223,49.7315587 L215.086758,121.430522 C215.023872,122.533079 214.150035,123.800599 213.135636,124.250254 L112.262095,168.964697 C111.236576,169.419282 109.603896,169.414352 108.590565,168.964697 L7.82320702,124.250254 C6.79876741,123.79567 5.92733494,122.546854 5.85199642,121.449937 L0.924900662,49.7121441 C0.850508256,48.6290015 1.60966476,47.3691994 2.62263738,46.9290651 L108.591214,0.885955282 C109.605904,0.445074784 111.245822,0.448035582 112.257908,0.890901809 L217.458069,46.9241186 C218.476921,47.3699456 219.239399,48.6239186 219.176223,49.7315587 Z M205.759538,61.5562672 L110.425363,102.175889 L14.1638295,61.5562672 L17.5409268,113.520307 L110.425363,153.809628 L202.874168,113.520307 L205.759538,61.5562672 Z M77.691781,44.3142853 L101.75646,34.0748859 L101.711287,21.517176 L37.789321,48.7643915 L37.789321,57.7946454 L42.1898138,59.6696239 L61.9607063,51.053777 L61.9607063,67.9443323 L77.691781,74.7793471 L77.691781,44.3142853 Z" id="Combined-Shape" stroke="none" fill="#FFFFFF" fill-rule="evenodd"></path>
</svg>